<mxfile host="Electron" modified="2023-04-03T08:30:47.221Z" agent="Mozilla/5.0 (Windows NT 10.0; Win64; x64) AppleWebKit/537.36 (KHTML, like Gecko) draw.io/21.1.2 Chrome/106.0.5249.199 Electron/21.4.3 Safari/537.36" etag="LqeJwJl5F1pB93qoqpzg" version="21.1.2" type="device">
  <diagram name="Страница 1" id="ERik4HALhELHMUYc3wik">
    <mxGraphModel dx="1702" dy="599" grid="1" gridSize="10" guides="1" tooltips="1" connect="1" arrows="1" fold="1" page="1" pageScale="1" pageWidth="827" pageHeight="1169" math="0" shadow="0">
      <root>
        <mxCell id="0" />
        <mxCell id="1" parent="0" />
        <mxCell id="luOi1I3FsapnikAJsjMC-7" style="edgeStyle=none;curved=1;rounded=1;orthogonalLoop=1;jettySize=auto;html=1;exitX=0.5;exitY=1;exitDx=0;exitDy=0;exitPerimeter=0;fontFamily=Lucida Console;fontSize=12;startSize=8;endSize=8;strokeWidth=1;" parent="1" source="luOi1I3FsapnikAJsjMC-3" target="luOi1I3FsapnikAJsjMC-6" edge="1">
          <mxGeometry relative="1" as="geometry" />
        </mxCell>
        <mxCell id="luOi1I3FsapnikAJsjMC-3" value="Start" style="strokeWidth=1;html=1;shape=mxgraph.flowchart.terminator;whiteSpace=wrap;fontSize=16;rounded=1;fillColor=#ffe6cc;strokeColor=#d79b00;" parent="1" vertex="1">
          <mxGeometry x="-550" y="170" width="140" height="60" as="geometry" />
        </mxCell>
        <mxCell id="luOi1I3FsapnikAJsjMC-9" style="edgeStyle=none;curved=1;rounded=1;orthogonalLoop=1;jettySize=auto;html=1;exitX=0.5;exitY=1;exitDx=0;exitDy=0;entryX=0.5;entryY=0;entryDx=0;entryDy=0;fontFamily=Lucida Console;fontSize=12;startSize=8;endSize=8;strokeWidth=1;" parent="1" source="luOi1I3FsapnikAJsjMC-6" target="luOi1I3FsapnikAJsjMC-8" edge="1">
          <mxGeometry relative="1" as="geometry" />
        </mxCell>
        <mxCell id="luOi1I3FsapnikAJsjMC-6" value="Input&lt;br&gt;arr, n ,i" style="shape=parallelogram;html=1;strokeWidth=1;perimeter=parallelogramPerimeter;whiteSpace=wrap;rounded=1;arcSize=12;size=0.23;fontFamily=Lucida Console;fontSize=16;fillColor=#f5f5f5;strokeColor=#666666;fontColor=#333333;" parent="1" vertex="1">
          <mxGeometry x="-555" y="270" width="150" height="60" as="geometry" />
        </mxCell>
        <mxCell id="luOi1I3FsapnikAJsjMC-12" style="edgeStyle=none;curved=1;rounded=1;orthogonalLoop=1;jettySize=auto;html=1;exitX=0.5;exitY=1;exitDx=0;exitDy=0;fontSize=12;startSize=8;endSize=8;strokeWidth=1;" parent="1" source="luOi1I3FsapnikAJsjMC-8" target="luOi1I3FsapnikAJsjMC-11" edge="1">
          <mxGeometry relative="1" as="geometry" />
        </mxCell>
        <mxCell id="luOi1I3FsapnikAJsjMC-8" value="lagest = i&lt;br&gt;l = 2 * i + 1&lt;br&gt;r = 2 * i + 2" style="rounded=1;whiteSpace=wrap;html=1;absoluteArcSize=1;arcSize=14;strokeWidth=1;fontFamily=Lucida Console;fontSize=16;fillColor=#f5f5f5;strokeColor=#666666;fontColor=#333333;" parent="1" vertex="1">
          <mxGeometry x="-570" y="370" width="180" height="80" as="geometry" />
        </mxCell>
        <mxCell id="luOi1I3FsapnikAJsjMC-14" value="YES" style="edgeStyle=none;curved=1;rounded=1;orthogonalLoop=1;jettySize=auto;html=1;exitX=1;exitY=0.5;exitDx=0;exitDy=0;exitPerimeter=0;fontSize=12;startSize=8;endSize=8;fillColor=#0050ef;strokeColor=#001DBC;fontColor=#301AF0;strokeWidth=1;" parent="1" source="luOi1I3FsapnikAJsjMC-11" target="luOi1I3FsapnikAJsjMC-13" edge="1">
          <mxGeometry relative="1" as="geometry" />
        </mxCell>
        <mxCell id="luOi1I3FsapnikAJsjMC-18" value="NO" style="edgeStyle=none;curved=1;rounded=1;orthogonalLoop=1;jettySize=auto;html=1;exitX=0.5;exitY=1;exitDx=0;exitDy=0;exitPerimeter=0;fontSize=12;startSize=8;endSize=8;fillColor=#a20025;strokeColor=#6F0000;fontColor=#F02B2B;strokeWidth=1;" parent="1" source="luOi1I3FsapnikAJsjMC-11" target="luOi1I3FsapnikAJsjMC-16" edge="1">
          <mxGeometry relative="1" as="geometry" />
        </mxCell>
        <mxCell id="luOi1I3FsapnikAJsjMC-11" value="&lt;div&gt;l&amp;lt;n &amp;amp;&amp;amp;&lt;/div&gt;&lt;div&gt;arr[i]&amp;lt;arr[l]&lt;/div&gt;" style="strokeWidth=1;html=1;shape=mxgraph.flowchart.decision;whiteSpace=wrap;rounded=1;fontSize=16;fontFamily=Lucida Console;" parent="1" vertex="1">
          <mxGeometry x="-580" y="500" width="200" height="80" as="geometry" />
        </mxCell>
        <mxCell id="luOi1I3FsapnikAJsjMC-13" value="largest = l" style="rounded=1;whiteSpace=wrap;html=1;absoluteArcSize=1;arcSize=14;strokeWidth=1;fontSize=16;fontFamily=Lucida Console;" parent="1" vertex="1">
          <mxGeometry x="-320" y="520" width="120" height="40" as="geometry" />
        </mxCell>
        <mxCell id="luOi1I3FsapnikAJsjMC-15" value="YES" style="edgeStyle=none;curved=1;rounded=1;orthogonalLoop=1;jettySize=auto;html=1;exitX=1;exitY=0.5;exitDx=0;exitDy=0;exitPerimeter=0;fontSize=12;startSize=8;endSize=8;fontColor=#110AF0;fillColor=#0050ef;strokeColor=#001DBC;strokeWidth=1;" parent="1" source="luOi1I3FsapnikAJsjMC-16" target="luOi1I3FsapnikAJsjMC-17" edge="1">
          <mxGeometry relative="1" as="geometry" />
        </mxCell>
        <mxCell id="luOi1I3FsapnikAJsjMC-22" value="NO" style="edgeStyle=none;curved=1;rounded=1;orthogonalLoop=1;jettySize=auto;html=1;exitX=0.5;exitY=1;exitDx=0;exitDy=0;exitPerimeter=0;strokeWidth=1;fontFamily=Lucida Console;fontSize=12;fontColor=#F02B2B;startSize=8;endSize=8;fillColor=#a20025;strokeColor=#6F0000;" parent="1" source="luOi1I3FsapnikAJsjMC-16" target="luOi1I3FsapnikAJsjMC-20" edge="1">
          <mxGeometry relative="1" as="geometry" />
        </mxCell>
        <mxCell id="luOi1I3FsapnikAJsjMC-16" value="&lt;div&gt;r &amp;lt; n &amp;amp;&amp;amp;&amp;nbsp;&lt;/div&gt;&lt;div&gt;&amp;nbsp;arr[largest]&amp;lt;arr[r]&lt;/div&gt;" style="strokeWidth=1;html=1;shape=mxgraph.flowchart.decision;whiteSpace=wrap;rounded=1;fontSize=16;fontFamily=Lucida Console;" parent="1" vertex="1">
          <mxGeometry x="-600" y="630" width="240" height="130" as="geometry" />
        </mxCell>
        <mxCell id="luOi1I3FsapnikAJsjMC-17" value="largest = l" style="rounded=1;whiteSpace=wrap;html=1;absoluteArcSize=1;arcSize=14;strokeWidth=1;fontSize=16;fontFamily=Lucida Console;" parent="1" vertex="1">
          <mxGeometry x="-280" y="675" width="120" height="40" as="geometry" />
        </mxCell>
        <mxCell id="luOi1I3FsapnikAJsjMC-28" value="YES" style="edgeStyle=none;curved=1;rounded=1;orthogonalLoop=1;jettySize=auto;html=1;exitX=1;exitY=0.5;exitDx=0;exitDy=0;exitPerimeter=0;strokeWidth=1;fontFamily=Lucida Console;fontSize=12;fontColor=#0038F0;startSize=8;endSize=8;fillColor=#0050ef;strokeColor=#001DBC;" parent="1" source="luOi1I3FsapnikAJsjMC-20" target="luOi1I3FsapnikAJsjMC-23" edge="1">
          <mxGeometry relative="1" as="geometry" />
        </mxCell>
        <mxCell id="luOi1I3FsapnikAJsjMC-31" value="NO" style="edgeStyle=none;curved=1;rounded=1;orthogonalLoop=1;jettySize=auto;html=1;exitX=0.5;exitY=1;exitDx=0;exitDy=0;exitPerimeter=0;strokeWidth=1;fontFamily=Lucida Console;fontSize=12;fontColor=#F02B2B;startSize=8;endSize=8;fillColor=#a20025;strokeColor=#6F0000;" parent="1" source="luOi1I3FsapnikAJsjMC-20" target="luOi1I3FsapnikAJsjMC-29" edge="1">
          <mxGeometry relative="1" as="geometry" />
        </mxCell>
        <mxCell id="luOi1I3FsapnikAJsjMC-20" value="&lt;div&gt;largest != i&lt;/div&gt;" style="strokeWidth=1;html=1;shape=mxgraph.flowchart.decision;whiteSpace=wrap;rounded=1;fontSize=16;fontFamily=Lucida Console;" parent="1" vertex="1">
          <mxGeometry x="-560" y="810" width="160" height="90" as="geometry" />
        </mxCell>
        <mxCell id="luOi1I3FsapnikAJsjMC-26" style="edgeStyle=none;curved=1;rounded=1;orthogonalLoop=1;jettySize=auto;html=1;exitX=0.5;exitY=1;exitDx=0;exitDy=0;strokeWidth=1;fontFamily=Lucida Console;fontSize=12;fontColor=#F02B2B;startSize=8;endSize=8;" parent="1" source="luOi1I3FsapnikAJsjMC-23" target="luOi1I3FsapnikAJsjMC-24" edge="1">
          <mxGeometry relative="1" as="geometry" />
        </mxCell>
        <mxCell id="luOi1I3FsapnikAJsjMC-23" value="arr[i], arr[largest] = arr[largest], arr[i]" style="rounded=1;whiteSpace=wrap;html=1;absoluteArcSize=1;arcSize=14;strokeWidth=1;fontSize=16;fontFamily=Lucida Console;" parent="1" vertex="1">
          <mxGeometry x="-320" y="830" width="280" height="40" as="geometry" />
        </mxCell>
        <mxCell id="luOi1I3FsapnikAJsjMC-40" style="edgeStyle=none;rounded=0;orthogonalLoop=1;jettySize=auto;html=1;exitX=0.5;exitY=1;exitDx=0;exitDy=0;entryX=1;entryY=0.5;entryDx=0;entryDy=0;strokeWidth=1;fontFamily=Lucida Console;fontSize=12;fontColor=#F0F0F0;startSize=8;endSize=8;" parent="1" source="luOi1I3FsapnikAJsjMC-24" target="luOi1I3FsapnikAJsjMC-32" edge="1">
          <mxGeometry relative="1" as="geometry">
            <Array as="points">
              <mxPoint x="-180" y="980" />
              <mxPoint y="980" />
              <mxPoint y="100" />
            </Array>
          </mxGeometry>
        </mxCell>
        <mxCell id="luOi1I3FsapnikAJsjMC-24" value="&lt;div&gt;heapify(arr, n, largest)&lt;/div&gt;" style="rounded=1;whiteSpace=wrap;html=1;absoluteArcSize=1;arcSize=14;strokeWidth=1;fontSize=16;fontFamily=Lucida Console;" parent="1" vertex="1">
          <mxGeometry x="-320" y="910" width="280" height="40" as="geometry" />
        </mxCell>
        <mxCell id="luOi1I3FsapnikAJsjMC-29" value="END" style="strokeWidth=1;html=1;shape=mxgraph.flowchart.terminator;whiteSpace=wrap;fontSize=16;rounded=1;" parent="1" vertex="1">
          <mxGeometry x="-550" y="950" width="140" height="60" as="geometry" />
        </mxCell>
        <mxCell id="luOi1I3FsapnikAJsjMC-36" style="edgeStyle=none;curved=1;rounded=1;orthogonalLoop=1;jettySize=auto;html=1;exitX=0.5;exitY=1;exitDx=0;exitDy=0;strokeWidth=1;fontFamily=Lucida Console;fontSize=12;fontColor=#F02B2B;startSize=8;endSize=8;" parent="1" source="luOi1I3FsapnikAJsjMC-32" target="luOi1I3FsapnikAJsjMC-3" edge="1">
          <mxGeometry relative="1" as="geometry" />
        </mxCell>
        <mxCell id="luOi1I3FsapnikAJsjMC-32" value="" style="verticalLabelPosition=bottom;verticalAlign=top;html=1;shape=process;whiteSpace=wrap;rounded=1;size=0.14;arcSize=6;strokeWidth=1;fontFamily=Lucida Console;fontSize=16;fillColor=#f8cecc;strokeColor=#b85450;" parent="1" vertex="1">
          <mxGeometry x="-530" y="70" width="100" height="60" as="geometry" />
        </mxCell>
        <mxCell id="luOi1I3FsapnikAJsjMC-38" value="Heapify" style="text;strokeColor=none;fillColor=none;html=1;align=center;verticalAlign=middle;whiteSpace=wrap;rounded=0;fontSize=16;fontFamily=Lucida Console;fontColor=#000000;" parent="1" vertex="1">
          <mxGeometry x="-510" y="85" width="60" height="30" as="geometry" />
        </mxCell>
        <mxCell id="luOi1I3FsapnikAJsjMC-41" style="edgeStyle=none;curved=1;rounded=1;orthogonalLoop=1;jettySize=auto;html=1;exitX=0.5;exitY=1;exitDx=0;exitDy=0;exitPerimeter=0;fontFamily=Lucida Console;fontSize=12;startSize=8;endSize=8;strokeWidth=1;" parent="1" edge="1">
          <mxGeometry relative="1" as="geometry">
            <mxPoint x="-480" y="230" as="sourcePoint" />
            <mxPoint x="-480" y="270" as="targetPoint" />
          </mxGeometry>
        </mxCell>
        <mxCell id="luOi1I3FsapnikAJsjMC-42" style="edgeStyle=none;curved=1;rounded=1;orthogonalLoop=1;jettySize=auto;html=1;exitX=0.5;exitY=1;exitDx=0;exitDy=0;entryX=0.5;entryY=0;entryDx=0;entryDy=0;fontFamily=Lucida Console;fontSize=12;startSize=8;endSize=8;strokeWidth=1;" parent="1" edge="1">
          <mxGeometry relative="1" as="geometry">
            <mxPoint x="-480" y="330" as="sourcePoint" />
            <mxPoint x="-480" y="370" as="targetPoint" />
          </mxGeometry>
        </mxCell>
        <mxCell id="luOi1I3FsapnikAJsjMC-43" style="edgeStyle=none;curved=1;rounded=1;orthogonalLoop=1;jettySize=auto;html=1;exitX=0.5;exitY=1;exitDx=0;exitDy=0;fontSize=12;startSize=8;endSize=8;strokeWidth=1;" parent="1" edge="1">
          <mxGeometry relative="1" as="geometry">
            <mxPoint x="-480" y="450" as="sourcePoint" />
            <mxPoint x="-480" y="500" as="targetPoint" />
          </mxGeometry>
        </mxCell>
        <mxCell id="luOi1I3FsapnikAJsjMC-44" style="edgeStyle=none;curved=1;rounded=1;orthogonalLoop=1;jettySize=auto;html=1;exitX=0.5;exitY=1;exitDx=0;exitDy=0;strokeWidth=1;fontFamily=Lucida Console;fontSize=12;fontColor=#F02B2B;startSize=8;endSize=8;" parent="1" edge="1">
          <mxGeometry relative="1" as="geometry">
            <mxPoint x="-480" y="130" as="sourcePoint" />
            <mxPoint x="-480" y="170" as="targetPoint" />
          </mxGeometry>
        </mxCell>
        <mxCell id="luOi1I3FsapnikAJsjMC-45" value="largest = l" style="rounded=1;whiteSpace=wrap;html=1;absoluteArcSize=1;arcSize=14;strokeWidth=1;fontSize=16;fontFamily=Lucida Console;" parent="1" vertex="1">
          <mxGeometry x="-320" y="520" width="120" height="40" as="geometry" />
        </mxCell>
        <mxCell id="luOi1I3FsapnikAJsjMC-47" value="&lt;div&gt;r &amp;lt; n &amp;amp;&amp;amp;&amp;nbsp;&lt;/div&gt;&lt;div&gt;&amp;nbsp;arr[largest]&amp;lt;arr[r]&lt;/div&gt;" style="strokeWidth=1;html=1;shape=mxgraph.flowchart.decision;whiteSpace=wrap;rounded=1;fontSize=16;fontFamily=Lucida Console;" parent="1" vertex="1">
          <mxGeometry x="-600" y="630" width="240" height="130" as="geometry" />
        </mxCell>
        <mxCell id="luOi1I3FsapnikAJsjMC-48" style="edgeStyle=none;curved=1;rounded=1;orthogonalLoop=1;jettySize=auto;html=1;exitX=0.5;exitY=1;exitDx=0;exitDy=0;exitPerimeter=0;fontFamily=Lucida Console;fontSize=12;startSize=8;endSize=8;strokeWidth=1;" parent="1" edge="1">
          <mxGeometry relative="1" as="geometry">
            <mxPoint x="-480" y="230" as="sourcePoint" />
            <mxPoint x="-480" y="270" as="targetPoint" />
          </mxGeometry>
        </mxCell>
        <mxCell id="luOi1I3FsapnikAJsjMC-49" style="edgeStyle=none;curved=1;rounded=1;orthogonalLoop=1;jettySize=auto;html=1;exitX=0.5;exitY=1;exitDx=0;exitDy=0;entryX=0.5;entryY=0;entryDx=0;entryDy=0;fontFamily=Lucida Console;fontSize=12;startSize=8;endSize=8;strokeWidth=1;" parent="1" edge="1">
          <mxGeometry relative="1" as="geometry">
            <mxPoint x="-480" y="330" as="sourcePoint" />
            <mxPoint x="-480" y="370" as="targetPoint" />
          </mxGeometry>
        </mxCell>
        <mxCell id="luOi1I3FsapnikAJsjMC-50" style="edgeStyle=none;curved=1;rounded=1;orthogonalLoop=1;jettySize=auto;html=1;exitX=0.5;exitY=1;exitDx=0;exitDy=0;fontSize=12;startSize=8;endSize=8;strokeWidth=1;" parent="1" edge="1">
          <mxGeometry relative="1" as="geometry">
            <mxPoint x="-480" y="450" as="sourcePoint" />
            <mxPoint x="-480" y="500" as="targetPoint" />
          </mxGeometry>
        </mxCell>
        <mxCell id="luOi1I3FsapnikAJsjMC-51" style="edgeStyle=none;curved=1;rounded=1;orthogonalLoop=1;jettySize=auto;html=1;exitX=0.5;exitY=1;exitDx=0;exitDy=0;strokeWidth=1;fontFamily=Lucida Console;fontSize=12;fontColor=#F02B2B;startSize=8;endSize=8;" parent="1" edge="1">
          <mxGeometry relative="1" as="geometry">
            <mxPoint x="-480" y="130" as="sourcePoint" />
            <mxPoint x="-480" y="170" as="targetPoint" />
          </mxGeometry>
        </mxCell>
        <mxCell id="luOi1I3FsapnikAJsjMC-52" value="largest = l" style="rounded=1;whiteSpace=wrap;html=1;absoluteArcSize=1;arcSize=14;strokeWidth=1;fontSize=16;fontFamily=Lucida Console;" parent="1" vertex="1">
          <mxGeometry x="-320" y="520" width="120" height="40" as="geometry" />
        </mxCell>
        <mxCell id="luOi1I3FsapnikAJsjMC-54" value="&lt;div&gt;r &amp;lt; n &amp;amp;&amp;amp;&amp;nbsp;&lt;/div&gt;&lt;div&gt;&amp;nbsp;arr[largest]&amp;lt;arr[r]&lt;/div&gt;" style="strokeWidth=1;html=1;shape=mxgraph.flowchart.decision;whiteSpace=wrap;rounded=1;fontSize=16;fontFamily=Lucida Console;" parent="1" vertex="1">
          <mxGeometry x="-600" y="630" width="240" height="130" as="geometry" />
        </mxCell>
        <mxCell id="luOi1I3FsapnikAJsjMC-55" value="largest = l" style="rounded=1;whiteSpace=wrap;html=1;absoluteArcSize=1;arcSize=14;strokeWidth=1;fontSize=16;fontFamily=Lucida Console;" parent="1" vertex="1">
          <mxGeometry x="-280" y="675" width="120" height="40" as="geometry" />
        </mxCell>
        <mxCell id="luOi1I3FsapnikAJsjMC-56" style="edgeStyle=none;curved=1;rounded=1;orthogonalLoop=1;jettySize=auto;html=1;exitX=0.5;exitY=1;exitDx=0;exitDy=0;exitPerimeter=0;fontFamily=Lucida Console;fontSize=12;startSize=8;endSize=8;strokeWidth=1;fillColor=#f5f5f5;strokeColor=#666666;" parent="1" edge="1">
          <mxGeometry relative="1" as="geometry">
            <mxPoint x="-480" y="230" as="sourcePoint" />
            <mxPoint x="-480" y="270" as="targetPoint" />
          </mxGeometry>
        </mxCell>
        <mxCell id="luOi1I3FsapnikAJsjMC-57" style="edgeStyle=none;curved=1;rounded=1;orthogonalLoop=1;jettySize=auto;html=1;exitX=0.5;exitY=1;exitDx=0;exitDy=0;entryX=0.5;entryY=0;entryDx=0;entryDy=0;fontFamily=Lucida Console;fontSize=12;startSize=8;endSize=8;strokeWidth=1;fillColor=#f5f5f5;strokeColor=#666666;" parent="1" edge="1">
          <mxGeometry relative="1" as="geometry">
            <mxPoint x="-480" y="330" as="sourcePoint" />
            <mxPoint x="-480" y="370" as="targetPoint" />
          </mxGeometry>
        </mxCell>
        <mxCell id="luOi1I3FsapnikAJsjMC-58" style="edgeStyle=none;curved=1;rounded=1;orthogonalLoop=1;jettySize=auto;html=1;exitX=0.5;exitY=1;exitDx=0;exitDy=0;fontSize=12;startSize=8;endSize=8;strokeWidth=1;fillColor=#f5f5f5;strokeColor=#666666;" parent="1" edge="1">
          <mxGeometry relative="1" as="geometry">
            <mxPoint x="-480" y="450" as="sourcePoint" />
            <mxPoint x="-480" y="500" as="targetPoint" />
          </mxGeometry>
        </mxCell>
        <mxCell id="luOi1I3FsapnikAJsjMC-59" style="edgeStyle=none;curved=1;rounded=1;orthogonalLoop=1;jettySize=auto;html=1;exitX=0.5;exitY=1;exitDx=0;exitDy=0;strokeWidth=1;fontFamily=Lucida Console;fontSize=12;fontColor=#F02B2B;startSize=8;endSize=8;fillColor=#f5f5f5;strokeColor=#666666;" parent="1" edge="1">
          <mxGeometry relative="1" as="geometry">
            <mxPoint x="-480" y="130" as="sourcePoint" />
            <mxPoint x="-480" y="170" as="targetPoint" />
          </mxGeometry>
        </mxCell>
        <mxCell id="luOi1I3FsapnikAJsjMC-60" value="largest = l" style="rounded=1;whiteSpace=wrap;html=1;absoluteArcSize=1;arcSize=14;strokeWidth=1;fontSize=16;fontFamily=Lucida Console;fillColor=#f5f5f5;strokeColor=#666666;fontColor=#333333;" parent="1" vertex="1">
          <mxGeometry x="-320" y="520" width="120" height="40" as="geometry" />
        </mxCell>
        <mxCell id="luOi1I3FsapnikAJsjMC-61" style="edgeStyle=none;rounded=0;orthogonalLoop=1;jettySize=auto;html=1;exitX=0.5;exitY=1;exitDx=0;exitDy=0;entryX=0.5;entryY=0;entryDx=0;entryDy=0;entryPerimeter=0;fontSize=12;startSize=8;endSize=8;strokeWidth=1;fillColor=#f5f5f5;strokeColor=#666666;" parent="1" source="luOi1I3FsapnikAJsjMC-60" target="luOi1I3FsapnikAJsjMC-62" edge="1">
          <mxGeometry relative="1" as="geometry">
            <Array as="points">
              <mxPoint x="-260" y="630" />
            </Array>
          </mxGeometry>
        </mxCell>
        <mxCell id="luOi1I3FsapnikAJsjMC-62" value="&lt;div&gt;r &amp;lt; n &amp;amp;&amp;amp;&amp;nbsp;&lt;/div&gt;&lt;div&gt;&amp;nbsp;arr[largest]&amp;lt;arr[r]&lt;/div&gt;" style="strokeWidth=1;html=1;shape=mxgraph.flowchart.decision;whiteSpace=wrap;rounded=1;fontSize=16;fontFamily=Lucida Console;fillColor=#d5e8d4;strokeColor=#82b366;" parent="1" vertex="1">
          <mxGeometry x="-600" y="630" width="240" height="130" as="geometry" />
        </mxCell>
        <mxCell id="luOi1I3FsapnikAJsjMC-63" value="largest = l" style="rounded=1;whiteSpace=wrap;html=1;absoluteArcSize=1;arcSize=14;strokeWidth=1;fontSize=16;fontFamily=Lucida Console;fillColor=#f5f5f5;strokeColor=#666666;fontColor=#333333;" parent="1" vertex="1">
          <mxGeometry x="-280" y="675" width="120" height="40" as="geometry" />
        </mxCell>
        <mxCell id="luOi1I3FsapnikAJsjMC-64" style="edgeStyle=none;rounded=0;orthogonalLoop=1;jettySize=auto;html=1;exitX=0.5;exitY=1;exitDx=0;exitDy=0;entryX=0.5;entryY=0;entryDx=0;entryDy=0;entryPerimeter=0;strokeWidth=1;fontFamily=Lucida Console;fontSize=12;fontColor=#F02B2B;startSize=8;endSize=8;fillColor=#f5f5f5;strokeColor=#666666;" parent="1" target="luOi1I3FsapnikAJsjMC-65" edge="1">
          <mxGeometry relative="1" as="geometry">
            <mxPoint x="-220" y="715" as="sourcePoint" />
            <Array as="points">
              <mxPoint x="-220" y="810" />
            </Array>
          </mxGeometry>
        </mxCell>
        <mxCell id="luOi1I3FsapnikAJsjMC-65" value="&lt;div&gt;largest != i&lt;/div&gt;" style="strokeWidth=1;html=1;shape=mxgraph.flowchart.decision;whiteSpace=wrap;rounded=1;fontSize=16;fontFamily=Lucida Console;fillColor=#d5e8d4;strokeColor=#82b366;" parent="1" vertex="1">
          <mxGeometry x="-560" y="810" width="160" height="90" as="geometry" />
        </mxCell>
        <mxCell id="luOi1I3FsapnikAJsjMC-66" value="arr[i], arr[largest] = arr[largest], arr[i]" style="rounded=1;whiteSpace=wrap;html=1;absoluteArcSize=1;arcSize=14;strokeWidth=1;fontSize=16;fontFamily=Lucida Console;fillColor=#f5f5f5;strokeColor=#666666;fontColor=#333333;" parent="1" vertex="1">
          <mxGeometry x="-320" y="830" width="280" height="40" as="geometry" />
        </mxCell>
        <mxCell id="luOi1I3FsapnikAJsjMC-67" value="&lt;div&gt;heapify(arr, n, largest)&lt;/div&gt;" style="rounded=1;whiteSpace=wrap;html=1;absoluteArcSize=1;arcSize=14;strokeWidth=1;fontSize=16;fontFamily=Lucida Console;fillColor=#f5f5f5;strokeColor=#666666;fontColor=#333333;" parent="1" vertex="1">
          <mxGeometry x="-320" y="910" width="280" height="40" as="geometry" />
        </mxCell>
        <mxCell id="luOi1I3FsapnikAJsjMC-68" value="END" style="strokeWidth=1;html=1;shape=mxgraph.flowchart.terminator;whiteSpace=wrap;fontSize=16;rounded=1;fillColor=#ffe6cc;strokeColor=#d79b00;" parent="1" vertex="1">
          <mxGeometry x="-550" y="950" width="140" height="60" as="geometry" />
        </mxCell>
        <mxCell id="luOi1I3FsapnikAJsjMC-69" value="&lt;div&gt;l&amp;lt;n &amp;amp;&amp;amp;&lt;/div&gt;&lt;div&gt;arr[i]&amp;lt;arr[l]&lt;/div&gt;" style="strokeWidth=1;html=1;shape=mxgraph.flowchart.decision;whiteSpace=wrap;rounded=1;fontSize=16;fontFamily=Lucida Console;fillColor=#d5e8d4;strokeColor=#82b366;" parent="1" vertex="1">
          <mxGeometry x="-580" y="500" width="200" height="80" as="geometry" />
        </mxCell>
        <mxCell id="luOi1I3FsapnikAJsjMC-76" style="edgeStyle=none;curved=1;rounded=1;orthogonalLoop=1;jettySize=auto;html=1;exitX=0.5;exitY=1;exitDx=0;exitDy=0;strokeWidth=1;fontFamily=Lucida Console;fontSize=12;fontColor=#000000;startSize=8;endSize=8;" parent="1" source="luOi1I3FsapnikAJsjMC-71" target="luOi1I3FsapnikAJsjMC-73" edge="1">
          <mxGeometry relative="1" as="geometry" />
        </mxCell>
        <mxCell id="luOi1I3FsapnikAJsjMC-71" value="" style="verticalLabelPosition=bottom;verticalAlign=top;html=1;shape=process;whiteSpace=wrap;rounded=1;size=0.14;arcSize=6;strokeWidth=1;fontFamily=Lucida Console;fontSize=16;fillColor=#f8cecc;strokeColor=#b85450;" parent="1" vertex="1">
          <mxGeometry x="80" y="70" width="100" height="60" as="geometry" />
        </mxCell>
        <mxCell id="luOi1I3FsapnikAJsjMC-72" value="Pyramid" style="text;strokeColor=none;fillColor=none;html=1;align=center;verticalAlign=middle;whiteSpace=wrap;rounded=0;fontSize=16;fontFamily=Lucida Console;fontColor=#000000;" parent="1" vertex="1">
          <mxGeometry x="100" y="85" width="60" height="30" as="geometry" />
        </mxCell>
        <mxCell id="luOi1I3FsapnikAJsjMC-77" style="edgeStyle=none;curved=1;rounded=1;orthogonalLoop=1;jettySize=auto;html=1;exitX=0.5;exitY=1;exitDx=0;exitDy=0;exitPerimeter=0;strokeWidth=1;fontFamily=Lucida Console;fontSize=12;fontColor=#000000;startSize=8;endSize=8;" parent="1" source="luOi1I3FsapnikAJsjMC-73" target="luOi1I3FsapnikAJsjMC-74" edge="1">
          <mxGeometry relative="1" as="geometry" />
        </mxCell>
        <mxCell id="luOi1I3FsapnikAJsjMC-73" value="Start" style="strokeWidth=1;html=1;shape=mxgraph.flowchart.terminator;whiteSpace=wrap;fontSize=16;rounded=1;fillColor=#ffe6cc;strokeColor=#d79b00;" parent="1" vertex="1">
          <mxGeometry x="60" y="170" width="140" height="60" as="geometry" />
        </mxCell>
        <mxCell id="luOi1I3FsapnikAJsjMC-78" style="edgeStyle=none;curved=1;rounded=1;orthogonalLoop=1;jettySize=auto;html=1;exitX=0.5;exitY=1;exitDx=0;exitDy=0;strokeWidth=1;fontFamily=Lucida Console;fontSize=12;fontColor=#000000;startSize=8;endSize=8;" parent="1" source="luOi1I3FsapnikAJsjMC-74" target="luOi1I3FsapnikAJsjMC-75" edge="1">
          <mxGeometry relative="1" as="geometry" />
        </mxCell>
        <mxCell id="luOi1I3FsapnikAJsjMC-74" value="Input arr" style="shape=parallelogram;html=1;strokeWidth=1;perimeter=parallelogramPerimeter;whiteSpace=wrap;rounded=1;arcSize=12;size=0.23;fontFamily=Lucida Console;fontSize=16;fillColor=#f5f5f5;strokeColor=#666666;fontColor=#333333;" parent="1" vertex="1">
          <mxGeometry x="55" y="270" width="150" height="60" as="geometry" />
        </mxCell>
        <mxCell id="luOi1I3FsapnikAJsjMC-80" style="edgeStyle=none;curved=1;rounded=1;orthogonalLoop=1;jettySize=auto;html=1;exitX=0.5;exitY=1;exitDx=0;exitDy=0;entryX=0.5;entryY=0;entryDx=0;entryDy=0;entryPerimeter=0;strokeWidth=1;fontFamily=Lucida Console;fontSize=12;fontColor=#000000;startSize=8;endSize=8;" parent="1" source="luOi1I3FsapnikAJsjMC-75" target="luOi1I3FsapnikAJsjMC-79" edge="1">
          <mxGeometry relative="1" as="geometry" />
        </mxCell>
        <mxCell id="luOi1I3FsapnikAJsjMC-75" value="n = len(arr)" style="rounded=1;whiteSpace=wrap;html=1;absoluteArcSize=1;arcSize=14;strokeWidth=1;fontSize=16;fontFamily=Lucida Console;fillColor=#f5f5f5;strokeColor=#666666;fontColor=#333333;" parent="1" vertex="1">
          <mxGeometry x="70" y="370" width="120" height="40" as="geometry" />
        </mxCell>
        <mxCell id="luOi1I3FsapnikAJsjMC-84" value="YES" style="edgeStyle=none;curved=1;rounded=1;orthogonalLoop=1;jettySize=auto;html=1;exitX=1;exitY=0.5;exitDx=0;exitDy=0;exitPerimeter=0;strokeWidth=1;fontFamily=Lucida Console;fontSize=12;fontColor=#110AF0;startSize=8;endSize=8;fillColor=#dae8fc;strokeColor=#6c8ebf;" parent="1" source="luOi1I3FsapnikAJsjMC-79" target="luOi1I3FsapnikAJsjMC-81" edge="1">
          <mxGeometry relative="1" as="geometry" />
        </mxCell>
        <mxCell id="luOi1I3FsapnikAJsjMC-88" value="NO" style="edgeStyle=none;curved=1;rounded=1;orthogonalLoop=1;jettySize=auto;html=1;exitX=0.5;exitY=1;exitDx=0;exitDy=0;exitPerimeter=0;strokeWidth=1;fontFamily=Lucida Console;fontSize=12;fontColor=#F03932;startSize=8;endSize=8;fillColor=#f8cecc;strokeColor=#b85450;" parent="1" source="luOi1I3FsapnikAJsjMC-79" target="luOi1I3FsapnikAJsjMC-87" edge="1">
          <mxGeometry relative="1" as="geometry" />
        </mxCell>
        <mxCell id="luOi1I3FsapnikAJsjMC-79" value="&lt;div&gt;n &amp;gt; -1&lt;/div&gt;" style="strokeWidth=1;html=1;shape=mxgraph.flowchart.decision;whiteSpace=wrap;rounded=1;fontSize=16;fontFamily=Lucida Console;fillColor=#d5e8d4;strokeColor=#82b366;" parent="1" vertex="1">
          <mxGeometry x="50" y="450" width="160" height="90" as="geometry" />
        </mxCell>
        <mxCell id="luOi1I3FsapnikAJsjMC-83" style="edgeStyle=none;curved=1;rounded=1;orthogonalLoop=1;jettySize=auto;html=1;exitX=0.5;exitY=0;exitDx=0;exitDy=0;strokeWidth=1;fontFamily=Lucida Console;fontSize=12;fontColor=#000000;startSize=8;endSize=8;" parent="1" source="luOi1I3FsapnikAJsjMC-81" target="luOi1I3FsapnikAJsjMC-82" edge="1">
          <mxGeometry relative="1" as="geometry" />
        </mxCell>
        <mxCell id="luOi1I3FsapnikAJsjMC-81" value="heapify(arr, n, i)" style="rounded=1;whiteSpace=wrap;html=1;absoluteArcSize=1;arcSize=14;strokeWidth=1;fontSize=16;fontFamily=Lucida Console;fillColor=#f5f5f5;strokeColor=#666666;fontColor=#333333;" parent="1" vertex="1">
          <mxGeometry x="284" y="475" width="180" height="40" as="geometry" />
        </mxCell>
        <mxCell id="luOi1I3FsapnikAJsjMC-86" style="edgeStyle=none;rounded=0;orthogonalLoop=1;jettySize=auto;html=1;exitX=0;exitY=0.5;exitDx=0;exitDy=0;entryX=0.751;entryY=0.236;entryDx=0;entryDy=0;entryPerimeter=0;strokeWidth=1;fontFamily=Lucida Console;fontSize=12;fontColor=#F02B2B;startSize=8;endSize=8;" parent="1" source="luOi1I3FsapnikAJsjMC-82" target="luOi1I3FsapnikAJsjMC-79" edge="1">
          <mxGeometry relative="1" as="geometry">
            <Array as="points">
              <mxPoint x="170" y="430" />
            </Array>
          </mxGeometry>
        </mxCell>
        <mxCell id="luOi1I3FsapnikAJsjMC-82" value="n = n -1" style="rounded=1;whiteSpace=wrap;html=1;absoluteArcSize=1;arcSize=14;strokeWidth=1;fontSize=16;fontFamily=Lucida Console;fillColor=#f5f5f5;strokeColor=#666666;fontColor=#333333;" parent="1" vertex="1">
          <mxGeometry x="314" y="410" width="120" height="40" as="geometry" />
        </mxCell>
        <mxCell id="luOi1I3FsapnikAJsjMC-90" style="edgeStyle=none;curved=1;rounded=1;orthogonalLoop=1;jettySize=auto;html=1;exitX=0.5;exitY=1;exitDx=0;exitDy=0;strokeWidth=1;fontFamily=Lucida Console;fontSize=12;fontColor=#110AF0;startSize=8;endSize=8;" parent="1" source="luOi1I3FsapnikAJsjMC-87" target="luOi1I3FsapnikAJsjMC-89" edge="1">
          <mxGeometry relative="1" as="geometry" />
        </mxCell>
        <mxCell id="luOi1I3FsapnikAJsjMC-87" value="n = len(arr)-1" style="rounded=1;whiteSpace=wrap;html=1;absoluteArcSize=1;arcSize=14;strokeWidth=1;fontSize=16;fontFamily=Lucida Console;fillColor=#f5f5f5;strokeColor=#666666;fontColor=#333333;" parent="1" vertex="1">
          <mxGeometry x="55" y="590" width="150" height="40" as="geometry" />
        </mxCell>
        <mxCell id="luOi1I3FsapnikAJsjMC-95" value="YES" style="edgeStyle=none;curved=1;rounded=1;orthogonalLoop=1;jettySize=auto;html=1;exitX=1;exitY=0.5;exitDx=0;exitDy=0;exitPerimeter=0;strokeWidth=1;fontFamily=Lucida Console;fontSize=12;fontColor=#110AF0;startSize=8;endSize=8;fillColor=#dae8fc;strokeColor=#6c8ebf;" parent="1" source="luOi1I3FsapnikAJsjMC-89" target="luOi1I3FsapnikAJsjMC-91" edge="1">
          <mxGeometry relative="1" as="geometry" />
        </mxCell>
        <mxCell id="luOi1I3FsapnikAJsjMC-100" style="edgeStyle=none;curved=1;rounded=1;orthogonalLoop=1;jettySize=auto;html=1;exitX=0.5;exitY=1;exitDx=0;exitDy=0;exitPerimeter=0;strokeWidth=1;fontFamily=Lucida Console;fontSize=12;fontColor=#110AF0;startSize=8;endSize=8;" parent="1" source="luOi1I3FsapnikAJsjMC-89" target="luOi1I3FsapnikAJsjMC-99" edge="1">
          <mxGeometry relative="1" as="geometry" />
        </mxCell>
        <mxCell id="luOi1I3FsapnikAJsjMC-89" value="&lt;div&gt;n &amp;gt; 0&lt;/div&gt;" style="strokeWidth=1;html=1;shape=mxgraph.flowchart.decision;whiteSpace=wrap;rounded=1;fontSize=16;fontFamily=Lucida Console;fillColor=#d5e8d4;strokeColor=#82b366;" parent="1" vertex="1">
          <mxGeometry x="50" y="670" width="160" height="90" as="geometry" />
        </mxCell>
        <mxCell id="luOi1I3FsapnikAJsjMC-93" style="edgeStyle=none;curved=1;rounded=1;orthogonalLoop=1;jettySize=auto;html=1;exitX=0.5;exitY=0;exitDx=0;exitDy=0;strokeWidth=1;fontFamily=Lucida Console;fontSize=12;fontColor=#110AF0;startSize=8;endSize=8;" parent="1" source="luOi1I3FsapnikAJsjMC-91" target="luOi1I3FsapnikAJsjMC-92" edge="1">
          <mxGeometry relative="1" as="geometry" />
        </mxCell>
        <mxCell id="luOi1I3FsapnikAJsjMC-91" value="&lt;div&gt;arr[i], arr[0] = arr[0], arr[i]&lt;/div&gt;" style="rounded=1;whiteSpace=wrap;html=1;absoluteArcSize=1;arcSize=14;strokeWidth=1;fontSize=16;fontFamily=Lucida Console;fillColor=#f5f5f5;strokeColor=#666666;fontColor=#333333;" parent="1" vertex="1">
          <mxGeometry x="284" y="695" width="306" height="40" as="geometry" />
        </mxCell>
        <mxCell id="luOi1I3FsapnikAJsjMC-98" style="edgeStyle=none;curved=1;rounded=1;orthogonalLoop=1;jettySize=auto;html=1;exitX=0.5;exitY=0;exitDx=0;exitDy=0;strokeWidth=1;fontFamily=Lucida Console;fontSize=12;fontColor=#110AF0;startSize=8;endSize=8;" parent="1" source="luOi1I3FsapnikAJsjMC-92" target="luOi1I3FsapnikAJsjMC-96" edge="1">
          <mxGeometry relative="1" as="geometry" />
        </mxCell>
        <mxCell id="luOi1I3FsapnikAJsjMC-92" value="heapify(arr, i, 0)" style="rounded=1;whiteSpace=wrap;html=1;absoluteArcSize=1;arcSize=14;strokeWidth=1;fontSize=16;fontFamily=Lucida Console;fillColor=#f5f5f5;strokeColor=#666666;fontColor=#333333;" parent="1" vertex="1">
          <mxGeometry x="347" y="630" width="180" height="40" as="geometry" />
        </mxCell>
        <mxCell id="luOi1I3FsapnikAJsjMC-97" style="edgeStyle=none;rounded=0;orthogonalLoop=1;jettySize=auto;html=1;exitX=0;exitY=0.5;exitDx=0;exitDy=0;entryX=0.5;entryY=0;entryDx=0;entryDy=0;entryPerimeter=0;strokeWidth=1;fontFamily=Lucida Console;fontSize=12;fontColor=#110AF0;startSize=8;endSize=8;" parent="1" source="luOi1I3FsapnikAJsjMC-96" target="luOi1I3FsapnikAJsjMC-89" edge="1">
          <mxGeometry relative="1" as="geometry">
            <Array as="points">
              <mxPoint x="250" y="580" />
              <mxPoint x="250" y="670" />
            </Array>
          </mxGeometry>
        </mxCell>
        <mxCell id="luOi1I3FsapnikAJsjMC-96" value="n = n -1" style="rounded=1;whiteSpace=wrap;html=1;absoluteArcSize=1;arcSize=14;strokeWidth=1;fontSize=16;fontFamily=Lucida Console;fillColor=#f5f5f5;strokeColor=#666666;fontColor=#333333;" parent="1" vertex="1">
          <mxGeometry x="377" y="560" width="120" height="40" as="geometry" />
        </mxCell>
        <mxCell id="luOi1I3FsapnikAJsjMC-99" value="END" style="strokeWidth=1;html=1;shape=mxgraph.flowchart.terminator;whiteSpace=wrap;fontSize=16;rounded=1;fillColor=#ffe6cc;strokeColor=#d79b00;" parent="1" vertex="1">
          <mxGeometry x="60" y="810" width="140" height="60" as="geometry" />
        </mxCell>
      </root>
    </mxGraphModel>
  </diagram>
</mxfile>
